<svg xmlns="http://www.w3.org/2000/svg" version="1.1" xmlns:xlink="http://www.w3.org/1999/xlink" xmlns:svgjs="http://svgjs.com/svgjs" width="1440" height="560" preserveAspectRatio="none" viewBox="0 0 1440 560"><g mask="url(&quot;#SvgjsMask1011&quot;)" fill="none"><rect width="1440" height="560" x="0" y="0" fill="rgba(34, 60, 87, 1)"></rect><path d="M1300.65 337.27a5.6 5.6 0 1 0-10.96 2.3 5.6 5.6 0 1 0 10.96-2.3zM1284.99 340.56a5.6 5.6 0 1 0-10.96 2.3 5.6 5.6 0 1 0 10.96-2.3zM1269.33 343.85a5.6 5.6 0 1 0-10.96 2.3 5.6 5.6 0 1 0 10.96-2.3zM1253.67 347.13a5.6 5.6 0 1 0-10.96 2.3 5.6 5.6 0 1 0 10.96-2.3z" stroke="#d3b714" stroke-width="1.15" stroke-dasharray="4, 4"></path><path d="M202.99 82.25999999999999 L101.05 167.26L101.48417706793799 74.22417706793797z" stroke="#d3b714" stroke-width="1" stroke-dasharray="3, 3"></path><path d="M377.79 412.29L368.71 403.25 375.54 392.41 366.47 383.37 373.3 372.54 364.23 363.5 371.06 352.67M385.73 411.39L376.66 402.35 383.49 391.52 374.42 382.48 381.25 371.64 372.18 362.6 379.01 351.77M393.68 410.49L384.61 401.45 391.44 390.62 382.37 381.58 389.2 370.74 380.13 361.7 386.95 350.87" stroke="#d3b714" stroke-width="1.8" stroke-dasharray="3, 2"></path><rect width="84" height="84" clip-path="url(&quot;#SvgjsClipPath1012&quot;)" x="634.17" y="55.95" fill="url(#SvgjsPattern1013)" transform="rotate(91.69, 676.17, 97.95)"></rect><rect width="60.8" height="60.8" clip-path="url(&quot;#SvgjsClipPath1014&quot;)" x="1321.32" y="92.94" fill="url(#SvgjsPattern1015)" transform="rotate(11.46, 1351.72, 123.34)"></rect><circle r="82.82501121260837" cx="422.24" cy="116.96" fill="#037b0b"></circle><rect width="160" height="160" clip-path="url(&quot;#SvgjsClipPath1016&quot;)" x="-47.89" y="38.83" fill="url(#SvgjsPattern1017)" transform="rotate(265.34, 32.11, 118.83)"></rect><rect width="102.2" height="102.2" clip-path="url(&quot;#SvgjsClipPath1018&quot;)" x="1138.19" y="120.96" fill="url(#SvgjsPattern1019)" transform="rotate(31.07, 1189.29, 172.06)"></rect><rect width="312" height="312" clip-path="url(&quot;#SvgjsClipPath1020&quot;)" x="340.97" y="308.98" fill="url(#SvgjsPattern1021)" transform="rotate(210.4, 496.97, 464.98)"></rect><path d="M158.48 324.17L163.77 312.51 176.31 315.1 181.59 303.44 194.13 306.03 199.42 294.37 211.96 296.96M162.11 331.3L167.4 319.64 179.94 322.23 185.22 310.57 197.76 313.16 203.05 301.5 215.59 304.09" stroke="rgba(242, 108, 79, 1)" stroke-width="1"></path><circle r="46.666666666666664" cx="164.75" cy="413.42" fill="#d3b714"></circle><circle r="46.666666666666664" cx="848.46" cy="242.27" fill="rgba(242, 108, 79, 1)"></circle></g><defs><mask id="SvgjsMask1011"><rect width="1440" height="560" fill="#ffffff"></rect></mask><pattern x="0" y="0" width="6" height="6" patternUnits="userSpaceOnUse" id="SvgjsPattern1013"><path d="M3 1L3 5M1 3L5 3" stroke="#e73635" fill="none" stroke-width="1.62"></path></pattern><clipPath id="SvgjsClipPath1012"><circle r="21" cx="676.17" cy="97.95"></circle></clipPath><pattern x="0" y="0" width="6.08" height="6.08" patternUnits="userSpaceOnUse" id="SvgjsPattern1015"><path d="M0 6.08L3.04 0L6.08 6.08" stroke="#037b0b" fill="none"></path></pattern><clipPath id="SvgjsClipPath1014"><circle r="15.2" cx="1351.72" cy="123.34"></circle></clipPath><pattern x="0" y="0" width="160" height="10" patternUnits="userSpaceOnUse" id="SvgjsPattern1017"><rect width="160" height="5" x="0" y="0" fill="rgba(242, 108, 79, 1)"></rect><rect width="160" height="5" x="0" y="5" fill="rgba(0, 0, 0, 0)"></rect></pattern><clipPath id="SvgjsClipPath1016"><circle r="40" cx="32.11" cy="118.83"></circle></clipPath><pattern x="0" y="0" width="102.2" height="10.22" patternUnits="userSpaceOnUse" id="SvgjsPattern1019"><rect width="102.2" height="5.11" x="0" y="0" fill="#e73635"></rect><rect width="102.2" height="5.11" x="0" y="5.11" fill="rgba(0, 0, 0, 0)"></rect></pattern><clipPath id="SvgjsClipPath1018"><circle r="25.55" cx="1189.29" cy="172.06"></circle></clipPath><pattern x="0" y="0" width="6" height="6" patternUnits="userSpaceOnUse" id="SvgjsPattern1021"><path d="M0 6L3 0L6 6" stroke="#e73635" fill="none"></path></pattern><clipPath id="SvgjsClipPath1020"><circle r="78" cx="496.97" cy="464.98"></circle></clipPath></defs></svg>